<svg xmlns="http://www.w3.org/2000/svg" width="24.493" height="24.092" viewBox="0 0 24.493 24.092">
  <g id="组_988" data-name="组 988" transform="translate(-1034.115 -10302.232)">
    <g id="頁面" transform="translate(-98.104 9786.421)">
      <path id="路径_760" data-name="路径 760" d="M1156.587,525.8a2.181,2.181,0,0,0-2.171-2.171h-3.447l-3.628-6.809a1.374,1.374,0,1,0-2.41,1.286l2.914,5.523h-6.732l2.914-5.523a1.371,1.371,0,1,0-2.4-1.286l-3.59,6.809h-3.486a2.162,2.162,0,0,0-.952,4.124l1.362,10.656a1.4,1.4,0,0,0,1.4,1.362h16.189a1.4,1.4,0,0,0,1.456-1.341v-.021l1.333-10.656A2.153,2.153,0,0,0,1156.587,525.8Zm-3.533,12.542h0a.467.467,0,0,1-.466.467H1136.4a.468.468,0,0,1-.486-.447v-.02l-1.314-10.37h19.77Zm1.848-11.427h-20.836a1.24,1.24,0,0,1,.485-2.381h2.991a1.429,1.429,0,0,0,.609,1.724,1.469,1.469,0,0,0,1.905-.705l.619-.991h7.713l.543,1.019a1.466,1.466,0,0,0,1.905.705,1.419,1.419,0,0,0,.609-1.723h2.981a1.238,1.238,0,0,1,.495,2.38Zm-17.141,9.989v-7.19a.476.476,0,1,1,.952,0v7.219a.476.476,0,1,1-.952,0Zm12.513,0v-7.19a.476.476,0,1,1,.952,0v7.219a.476.476,0,1,1-.952,0Zm-4.171,0v-7.19a.476.476,0,1,1,.952,0v7.219a.476.476,0,1,1-.952,0Zm-4.171,0v-7.19a.476.476,0,1,1,.952,0v7.219a.476.476,0,1,1-.952,0Z" fill="#595757" stroke="#595757" stroke-miterlimit="10" stroke-width="0.25"/>
    </g>
  </g>
</svg>
