<?xml version="1.0" encoding="utf-8"?>
<!-- Generator: Adobe Illustrator 16.0.0, SVG Export Plug-In . SVG Version: 6.00 Build 0)  -->
<!DOCTYPE svg PUBLIC "-//W3C//DTD SVG 1.1//EN" "http://www.w3.org/Graphics/SVG/1.1/DTD/svg11.dtd">
<svg version="1.1" id="icon_3hr" xmlns="http://www.w3.org/2000/svg" xmlns:xlink="http://www.w3.org/1999/xlink" x="0px" y="0px"
	 width="49.34px" height="28.516px" viewBox="0 0 49.34 28.516" enable-background="new 0 0 49.34 28.516" xml:space="preserve">
<g>
	<g>
		<defs>
			<rect id="SVGID_1_" x="4.684" y="0" width="39.972" height="28.516"/>
		</defs>
		<clipPath id="SVGID_2_">
			<use xlink:href="#SVGID_1_"  overflow="visible"/>
		</clipPath>
		<g id="マスクグループ_1" clip-path="url(#SVGID_2_)">
			<g id="icon_product" transform="translate(6.798 0.006)">
				<path id="パス_140" fill="#FFFFFF" d="M11.638,21.601h-0.804V1.806c0-0.236-0.081-0.471-0.242-0.628
					c-0.241-0.236-0.643-0.393-0.965-0.393H4.721c-0.161,0-0.241,0.079-0.402,0.157c-0.081,0.158-0.161,0.315-0.161,0.55
					c0,0.236,0.08,0.549,0.322,0.707c0.08,0.078,0.161,0.078,0.321,0.078h3.297c0.161,0,0.322,0.08,0.482,0.08
					C8.903,2.513,9.144,2.827,9.144,3.22v18.381H8.34V3.22c0-0.157-0.241-0.157-0.321-0.157H4.721
					C3.916,2.984,3.273,2.276,3.353,1.492c0-0.393,0.162-0.786,0.402-1.1C4.078,0.156,4.399,0,4.721,0h4.826
					c0.563,0,1.126,0.235,1.609,0.628c0.321,0.313,0.482,0.785,0.482,1.178V21.601z"/>
				<path id="パス_141" fill="#FFFFFF" d="M31.181,26.472H13.166v-0.785h17.934c0.164-0.079,0.484-0.235,0.484-0.864
					c0-0.628-0.403-0.786-0.563-0.864H13.166v-0.786h17.934l0,0c0.805,0.159,1.369,0.864,1.288,1.65
					c0,0.549-0.159,1.022-0.563,1.335C31.663,26.316,31.424,26.394,31.181,26.472L31.181,26.472z"/>
				<path id="パス_142" fill="#FFFFFF" d="M9.868,28.515c-2.091,0-3.78-1.649-3.78-3.771s1.689-3.692,3.861-3.692
					c2.091,0,3.779,1.649,3.779,3.692C13.728,26.865,11.959,28.515,9.868,28.515L9.868,28.515z M9.868,21.837
					c-1.689,0-2.976,1.335-2.976,2.907c0,1.649,1.368,2.906,2.976,2.906c1.609,0,2.976-1.335,2.976-2.906
					C12.844,23.172,11.557,21.837,9.868,21.837L9.868,21.837z"/>
				<path id="パス_143" fill="#FFFFFF" d="M25.632,11.154H14.854c-0.563,0-0.965-0.393-0.965-0.942v-7.07
					c0-0.55,0.402-0.943,0.965-0.943h10.696c0.563,0,0.965,0.393,0.965,0.943v7.07C26.597,10.683,26.114,11.154,25.632,11.154z
					 M14.854,2.984c-0.08,0-0.16,0.078-0.16,0.157v7.07c0,0.078,0.08,0.156,0.16,0.156h10.696c0.081,0,0.161-0.078,0.161-0.156
					v-7.07c0-0.079-0.08-0.157-0.161-0.157H14.854z"/>
				<path id="パス_144" fill="#FFFFFF" d="M28.929,23.958H14.854c-0.563,0-0.965-0.393-0.965-0.942V11.311
					c0-0.55,0.402-0.943,0.965-0.943h14.074c0.563,0,0.965,0.393,0.965,0.943v11.705C29.893,23.566,29.492,23.958,28.929,23.958z
					 M14.854,11.154c-0.08,0-0.16,0.078-0.16,0.157v11.705c0,0.078,0.08,0.156,0.16,0.156h14.074c0.082,0,0.162-0.078,0.162-0.156
					V11.311c0-0.079-0.08-0.157-0.162-0.157H14.854z"/>
				<path id="パス_145" fill="#FFFFFF" d="M18.635,7.776c-0.161,0-0.241,0-0.322-0.078c-0.24-0.157-0.321-0.393-0.321-0.628V2.591
					h0.805v4.321l0.803-0.393c0.484-0.235,0.966-0.157,1.369,0l0.644,0.314V2.591h0.804v4.478c0,0.392-0.241,0.707-0.645,0.785
					c-0.159,0-0.321,0-0.482-0.078l-0.724-0.393c-0.159-0.078-0.402-0.078-0.642,0l-0.885,0.471
					C18.957,7.776,18.796,7.776,18.635,7.776z"/>
				<path id="パス_146" fill="#FFFFFF" d="M24.184,17.596c-0.162,0-0.322-0.078-0.482-0.158l-1.449-1.021
					c-0.159-0.078-0.321-0.078-0.482,0l-1.447,0.942c-0.24,0.236-0.725,0.236-0.964-0.078c-0.161-0.156-0.161-0.314-0.161-0.472
					v-6.127h0.803v5.891l1.287-0.864c0.403-0.234,0.965-0.234,1.449,0l1.285,0.864v-5.891h0.806v6.127
					c0,0.235-0.08,0.55-0.322,0.628C24.346,17.518,24.266,17.596,24.184,17.596z"/>
				<rect id="長方形_95" x="13.889" y="3.613" fill="#FFFFFF" width="0.805" height="9.505"/>
			</g>
		</g>
	</g>
</g>
</svg>
