<svg id="icon_3hr" xmlns="http://www.w3.org/2000/svg" width="49.34" height="28.516" viewBox="0 0 49.34 28.516">
  <path id="パス_126" data-name="パス 126" d="M269.7,463.929a.43.43,0,1,1-.756-.379l6.244-12.516a.9.9,0,0,1,.734-.454h2.066a.43.43,0,1,1,0,.846H276.45a.9.9,0,0,0-.734.454Z" transform="translate(-262.103 -444.558)" fill="#fff"/>
  <path id="パス_127" data-name="パス 127" d="M302.71,479a.994.994,0,0,1-.641-.206.779.779,0,0,1-.275-.622v-2.315a.9.9,0,0,1,.2-.695.843.843,0,0,1,.72-.265l.148.006c.657.023,2.657.093,2.622,2.138a1.815,1.815,0,0,1-.6,1.394,2.937,2.937,0,0,1-2.018.556A1.414,1.414,0,0,1,302.71,479Zm.128-.861.061.006a2.125,2.125,0,0,0,1.426-.346.993.993,0,0,0,.311-.772c.016-1.012-.679-1.24-1.806-1.279-.064,0-.121,0-.168-.007h-.027a.133.133,0,0,0,0,.018l.007.038v2.352a.528.528,0,0,0,.138,0Z" transform="translate(-293.679 -467.893)" fill="#fff"/>
  <path id="パス_128" data-name="パス 128" d="M591.92,570.209h-6a1.982,1.982,0,1,1,0-3.964h6a1.982,1.982,0,1,1,0,3.964Zm-6-3.118a1.136,1.136,0,1,0,0,2.272h6a1.136,1.136,0,0,0,0-2.272Z" transform="translate(-564.473 -555.567)" fill="#fff"/>
  <path id="パス_129" data-name="パス 129" d="M832.78,313.5H824.5a2.117,2.117,0,0,1-2.115-2.114v-8.275A2.117,2.117,0,0,1,824.5,301h8.275a2.117,2.117,0,0,1,2.115,2.114v8.275A2.117,2.117,0,0,1,832.78,313.5ZM824.5,301.845a1.27,1.27,0,0,0-1.269,1.268v8.276a1.27,1.27,0,0,0,1.269,1.268h8.275a1.27,1.27,0,0,0,1.269-1.268v-8.275a1.27,1.27,0,0,0-1.269-1.269Z" transform="translate(-793.323 -301)" fill="#fff"/>
  <rect id="長方形_92" data-name="長方形 92" width="11.658" height="0.846" transform="translate(29.489 3.23)" fill="#fff"/>
  <path id="パス_130" data-name="パス 130" d="M819.18,600.473h-7.348a1.442,1.442,0,0,1,0-2.883h7.348a1.442,1.442,0,0,1,0,2.883Zm-7.348-2.037a.6.6,0,0,0,0,1.192h7.348a.6.6,0,0,0,0-1.192Z" transform="translate(-781.807 -585.65)" fill="#fff"/>
  <path id="パス_131" data-name="パス 131" d="M696.158,656.171l-9.172-.006a2.652,2.652,0,0,1-1.965-.672,2.822,2.822,0,0,1-.672-2.375,5.239,5.239,0,0,1,5.214-4.918c4.335,0,7.225,2.232,8.358,6.455l.015.054v.056C697.934,655.251,697.561,656.171,696.158,656.171Zm-9.187-.852,9.189.006c.78,0,.907-.388.926-.52-1.047-3.822-3.579-5.76-7.522-5.76a4.355,4.355,0,0,0-4.372,4.151,2.041,2.041,0,0,0,.421,1.691,1.824,1.824,0,0,0,1.316.433Z" transform="translate(-660.819 -634.223)" fill="#fff"/>
  <path id="パス_132" data-name="パス 132" d="M383.725,583.4H377.6a1.285,1.285,0,0,1-1.029-.422,1.49,1.49,0,0,1-.3-1.1c.008-.418.107-6.091,0-7.136-.078-.771-1.415-1.029-1.429-1.032l.145-.833c.081.014,1.982.359,2.125,1.78.114,1.13.006,7.011,0,7.26l-.005.058a.671.671,0,0,0,.1.455.5.5,0,0,0,.384.124h6.052a2.447,2.447,0,0,0,2.042-2.4v-4.008h.845v4.008a3.27,3.27,0,0,1-2.781,3.236Z" transform="translate(-363.8 -561.935)" fill="#fff"/>
  <path id="パス_133" data-name="パス 133" d="M737.339,842.825a4.867,4.867,0,0,1-4.4-6.941l.765.362a4.019,4.019,0,1,0,7.254-.037l.761-.369a4.82,4.82,0,0,1,.485,2.121A4.871,4.871,0,0,1,737.339,842.825Z" transform="translate(-707.026 -814.308)" fill="#fff"/>
  <path id="パス_134" data-name="パス 134" d="M807.992,845.045a1.9,1.9,0,1,1,1.9-1.9A1.9,1.9,0,0,1,807.992,845.045Zm0-2.959a1.057,1.057,0,1,0,1.057,1.057A1.057,1.057,0,0,0,807.992,842.086Z" transform="translate(-777.68 -819.491)" fill="#fff"/>
  <path id="パス_135" data-name="パス 135" d="M105.245,777.39a4.865,4.865,0,1,1,4.865-4.865A4.865,4.865,0,0,1,105.245,777.39Zm0-8.884a4.019,4.019,0,1,0,4.019,4.019A4.019,4.019,0,0,0,105.245,768.506Z" transform="translate(-100.38 -748.873)" fill="#fff"/>
  <path id="パス_136" data-name="パス 136" d="M175.872,845.045a1.9,1.9,0,1,1,1.9-1.9A1.9,1.9,0,0,1,175.872,845.045Zm0-2.959a1.057,1.057,0,1,0,1.057,1.057A1.057,1.057,0,0,0,175.872,842.086Z" transform="translate(-171.007 -819.491)" fill="#fff"/>
  <path id="パス_137" data-name="パス 137" d="M125.684,701c.037-.017,3.757-1.638,6.736-.115,1.751.9,2.927,2.71,3.5,5.392a1.353,1.353,0,0,0,1.351,1.337h12.744v-.845H137.267a.515.515,0,0,1-.508-.557l-.009-.074c-.622-2.965-1.95-4.987-3.95-6.006-3.343-1.706-7.3.023-7.462.1a.456.456,0,0,0-.17.51A.436.436,0,0,0,125.684,701Z" transform="translate(-124.141 -683.342)" fill="#fff"/>
  <rect id="長方形_93" data-name="長方形 93" width="11.306" height="0.909" rx="0.455" transform="translate(38.035 16.482)" fill="#fff"/>
  <path id="パス_138" data-name="パス 138" d="M1045.563,765.42h8.788a.454.454,0,0,1,.454.454h0a.454.454,0,0,1-.454.454h-8.788a.4.4,0,0,1-.4-.4v-.1A.4.4,0,0,1,1045.563,765.42Z" transform="translate(-1007.126 -746.724)" fill="#fff"/>
  <path id="パス_139" data-name="パス 139" d="M1045.543,820.42h7.206a.454.454,0,0,1,.454.454h0a.455.455,0,0,1-.455.455h-7.206a.4.4,0,0,1-.4-.4v-.1a.4.4,0,0,1,.4-.4Z" transform="translate(-1007.106 -799.51)" fill="#fff"/>
</svg>
